<mxfile host="app.diagrams.net" modified="2021-10-04T13:04:12.029Z" agent="5.0 (Windows NT 10.0; Win64; x64) AppleWebKit/537.36 (KHTML, like Gecko) Chrome/94.0.4606.61 Safari/537.36" etag="ot2DU6xdSRHZ3bIcfRFD" version="15.4.1" type="github">
  <diagram id="3QAUWeM-hKMBV1Pnxne8" name="Page-1">
    <mxGraphModel dx="942" dy="674" grid="1" gridSize="10" guides="1" tooltips="1" connect="1" arrows="1" fold="1" page="1" pageScale="1" pageWidth="900" pageHeight="1600" math="0" shadow="0">
      <root>
        <mxCell id="0" />
        <mxCell id="1" parent="0" />
        <mxCell id="YES2gs9dnlq-2v622uwK-3" value="" style="edgeStyle=orthogonalEdgeStyle;rounded=0;orthogonalLoop=1;jettySize=auto;html=1;" edge="1" parent="1" source="YES2gs9dnlq-2v622uwK-1" target="YES2gs9dnlq-2v622uwK-2">
          <mxGeometry relative="1" as="geometry" />
        </mxCell>
        <mxCell id="YES2gs9dnlq-2v622uwK-1" value="输入数据" style="rounded=0;whiteSpace=wrap;html=1;" vertex="1" parent="1">
          <mxGeometry x="390" y="170" width="120" height="60" as="geometry" />
        </mxCell>
        <mxCell id="YES2gs9dnlq-2v622uwK-5" value="" style="edgeStyle=orthogonalEdgeStyle;rounded=0;orthogonalLoop=1;jettySize=auto;html=1;" edge="1" parent="1" source="YES2gs9dnlq-2v622uwK-2" target="YES2gs9dnlq-2v622uwK-4">
          <mxGeometry relative="1" as="geometry" />
        </mxCell>
        <mxCell id="YES2gs9dnlq-2v622uwK-11" value="" style="edgeStyle=orthogonalEdgeStyle;rounded=0;orthogonalLoop=1;jettySize=auto;html=1;" edge="1" parent="1" source="YES2gs9dnlq-2v622uwK-2" target="YES2gs9dnlq-2v622uwK-10">
          <mxGeometry relative="1" as="geometry" />
        </mxCell>
        <mxCell id="YES2gs9dnlq-2v622uwK-2" value="数据预处理" style="whiteSpace=wrap;html=1;rounded=0;" vertex="1" parent="1">
          <mxGeometry x="390" y="290" width="120" height="60" as="geometry" />
        </mxCell>
        <mxCell id="YES2gs9dnlq-2v622uwK-7" value="" style="edgeStyle=orthogonalEdgeStyle;rounded=0;orthogonalLoop=1;jettySize=auto;html=1;" edge="1" parent="1" source="YES2gs9dnlq-2v622uwK-4" target="YES2gs9dnlq-2v622uwK-6">
          <mxGeometry relative="1" as="geometry" />
        </mxCell>
        <mxCell id="YES2gs9dnlq-2v622uwK-4" value="提取月度数据" style="whiteSpace=wrap;html=1;rounded=0;" vertex="1" parent="1">
          <mxGeometry x="590" y="290" width="120" height="60" as="geometry" />
        </mxCell>
        <mxCell id="YES2gs9dnlq-2v622uwK-9" value="" style="edgeStyle=orthogonalEdgeStyle;rounded=0;orthogonalLoop=1;jettySize=auto;html=1;" edge="1" parent="1" source="YES2gs9dnlq-2v622uwK-6" target="YES2gs9dnlq-2v622uwK-8">
          <mxGeometry relative="1" as="geometry" />
        </mxCell>
        <mxCell id="YES2gs9dnlq-2v622uwK-6" value="用find_peaks()方法找到峰值" style="whiteSpace=wrap;html=1;rounded=0;" vertex="1" parent="1">
          <mxGeometry x="590" y="620" width="120" height="60" as="geometry" />
        </mxCell>
        <mxCell id="YES2gs9dnlq-2v622uwK-8" value="计算峰值时间差" style="whiteSpace=wrap;html=1;rounded=0;" vertex="1" parent="1">
          <mxGeometry x="370" y="790" width="120" height="60" as="geometry" />
        </mxCell>
        <mxCell id="YES2gs9dnlq-2v622uwK-13" value="" style="edgeStyle=orthogonalEdgeStyle;rounded=0;orthogonalLoop=1;jettySize=auto;html=1;" edge="1" parent="1" source="YES2gs9dnlq-2v622uwK-10" target="YES2gs9dnlq-2v622uwK-12">
          <mxGeometry relative="1" as="geometry" />
        </mxCell>
        <mxCell id="YES2gs9dnlq-2v622uwK-10" value="以天为单位切分数据" style="whiteSpace=wrap;html=1;rounded=0;" vertex="1" parent="1">
          <mxGeometry x="190" y="290" width="120" height="60" as="geometry" />
        </mxCell>
        <mxCell id="YES2gs9dnlq-2v622uwK-15" value="" style="edgeStyle=orthogonalEdgeStyle;rounded=0;orthogonalLoop=1;jettySize=auto;html=1;" edge="1" parent="1" source="YES2gs9dnlq-2v622uwK-12" target="YES2gs9dnlq-2v622uwK-14">
          <mxGeometry relative="1" as="geometry" />
        </mxCell>
        <mxCell id="YES2gs9dnlq-2v622uwK-12" value="PCA降维" style="whiteSpace=wrap;html=1;rounded=0;" vertex="1" parent="1">
          <mxGeometry x="190" y="400" width="120" height="60" as="geometry" />
        </mxCell>
        <mxCell id="YES2gs9dnlq-2v622uwK-17" value="" style="edgeStyle=orthogonalEdgeStyle;rounded=0;orthogonalLoop=1;jettySize=auto;html=1;" edge="1" parent="1" source="YES2gs9dnlq-2v622uwK-14" target="YES2gs9dnlq-2v622uwK-16">
          <mxGeometry relative="1" as="geometry" />
        </mxCell>
        <mxCell id="YES2gs9dnlq-2v622uwK-14" value="储备池计算" style="whiteSpace=wrap;html=1;rounded=0;" vertex="1" parent="1">
          <mxGeometry x="190" y="510" width="120" height="60" as="geometry" />
        </mxCell>
        <mxCell id="YES2gs9dnlq-2v622uwK-20" style="edgeStyle=orthogonalEdgeStyle;rounded=0;orthogonalLoop=1;jettySize=auto;html=1;exitX=1;exitY=0.5;exitDx=0;exitDy=0;entryX=0.5;entryY=0;entryDx=0;entryDy=0;" edge="1" parent="1" source="YES2gs9dnlq-2v622uwK-16" target="YES2gs9dnlq-2v622uwK-8">
          <mxGeometry relative="1" as="geometry" />
        </mxCell>
        <mxCell id="YES2gs9dnlq-2v622uwK-22" value="" style="edgeStyle=orthogonalEdgeStyle;rounded=0;orthogonalLoop=1;jettySize=auto;html=1;" edge="1" parent="1" source="YES2gs9dnlq-2v622uwK-16" target="YES2gs9dnlq-2v622uwK-21">
          <mxGeometry relative="1" as="geometry" />
        </mxCell>
        <mxCell id="YES2gs9dnlq-2v622uwK-16" value="层次聚类法聚类" style="whiteSpace=wrap;html=1;rounded=0;" vertex="1" parent="1">
          <mxGeometry x="190" y="620" width="120" height="60" as="geometry" />
        </mxCell>
        <mxCell id="YES2gs9dnlq-2v622uwK-21" value="计算谷值时间差" style="whiteSpace=wrap;html=1;rounded=0;" vertex="1" parent="1">
          <mxGeometry x="30" y="787" width="120" height="60" as="geometry" />
        </mxCell>
      </root>
    </mxGraphModel>
  </diagram>
</mxfile>
